<svg xmlns="http://www.w3.org/2000/svg" viewBox="0 0 216.1 140.05"><defs><style>.cls-1,.cls-3,.cls-4{fill:none;stroke-miterlimit:10;}.cls-1{stroke:#9b2412;}.cls-1,.cls-3{stroke-width:2px;}.cls-2{opacity:0.13;}.cls-3{stroke:#de979e;}.cls-4{stroke:#9c2115;}.cls-5{fill:#ef993a;}.cls-6{fill:#ed8d38;}.cls-7{fill:#ee7e33;}.cls-8{fill:#ee8034;}.cls-9{fill:#f47230;}.cls-10{fill:#ef7330;}.cls-11{fill:#ea6833;}.cls-12{fill:#f05f27;}.cls-13{fill:#ea772e;}.cls-14{fill:#eb652a;}.cls-15{fill:#e75326;}.cls-16{fill:#ea4926;}.cls-17{fill:#ee552a;}.cls-18{fill:#e94d26;}.cls-19{fill:#e63e24;}.cls-20{fill:#e73a26;}.cls-21{fill:#e83f24;}.cls-22{fill:#e63b24;}.cls-23{fill:#eb411d;}.cls-24{fill:#de3b22;}.cls-25{fill:#e43622;}.cls-26{fill:#e5381d;}</style></defs><g id="Layer_2" data-name="Layer 2"><g id="OBJECTS"><path d="M2.73,5.25H5.62l10.67,18v-18h5.27V31.43H16l-10.67-18v18H0V8.06A2.78,2.78,0,0,1,2.73,5.25Z"/><path d="M33.46,31.89c-6.16-.19-9.24-3.77-9.24-10.7s3.12-10.4,9.32-10.44q9.69,0,9.12,11.94H29.5c.19,3.12,1.54,4.69,4,4.69a4.74,4.74,0,0,0,3.31-1.46,2.24,2.24,0,0,1,1.73-.73h3.77C41.24,29.5,38.46,31.89,33.46,31.89ZM29.57,19h7.66C36.92,16.34,35.65,15,33.46,15S30,16.34,29.57,19Z"/><path d="M62.18,23.3c0,3.51-.88,5.82-2.69,6.93a11.85,11.85,0,0,1-6,1.58,10.31,10.31,0,0,1-5.77-1.73c-1.77-1.12-2.66-3.35-2.66-6.78V11.06h5.12V24.34c0,2.27,1.16,3.39,3.47,3.39s3.46-1.12,3.46-3.39V13.6a2.18,2.18,0,0,1,2.47-2.54h2.61Z"/><path d="M64.42,20.92c.15-6.59,3.66-9.86,10.47-9.86h.73v5.31H73.89c-2.85,0-4.27,1.51-4.27,4.47V31.43h-5.2Z"/><path d="M83.29,16.37H78.16c.62-3.77,3.28-5.62,8-5.62,5.62,0,8.47,1.85,8.59,5.62V23.3c0,5.62-3.39,8.13-8.89,8.51-4.89.39-8.28-1.88-8.28-6.39.11-4.89,3.66-6.2,8.81-6.7,2.2-.27,3.32-.92,3.32-2S88.48,15,86.36,15C84.55,15,83.55,15.41,83.29,16.37Zm6.46,6.7V21.19a22.31,22.31,0,0,1-4.08,1.23c-2,.38-3.08,1.35-3.08,2.85a2.28,2.28,0,0,0,2.58,2.38A4.21,4.21,0,0,0,89.75,23.07Z"/><path d="M103.08,7.75V31.43H98V5.25h2.65A2.51,2.51,0,0,1,103.08,7.75Z"/><path d="M129.53,10.6c0,3.31-2,5.2-4.28,6.62L129,22a13.32,13.32,0,0,0,1.31-4.43h2.77c1.19,0,1.77.65,1.65,2a10.11,10.11,0,0,1-2.85,6l4.86,5.85h-6.16l-1.81-2.2a8.51,8.51,0,0,1-3.43,2.2c-3.7.88-7.66.46-10-1.42A7.23,7.23,0,0,1,113,24.34c0-4.31,2.5-6.12,5.66-7.89l-1.08-1.35c-1.84-2.81-2.27-6.27.31-8.54a7.75,7.75,0,0,1,5-1.74C126.68,4.82,129.53,6.9,129.53,10.6Zm-9.71,10.16A3.8,3.8,0,0,0,118.17,24c0,2.27,1.23,3.42,3.7,3.58A5,5,0,0,0,126,25.73l-4.81-6Zm.89-10.08A3.87,3.87,0,0,0,121.79,13l.88,1.15A3.86,3.86,0,0,0,125,10.6a1.85,1.85,0,0,0-2.12-2A1.93,1.93,0,0,0,120.71,10.68Z"/><path d="M2.69,38.79h5.2l5.28,19.94,5.12-19.94h8V65h-5V43.84L15.86,65H10.39L5,43.84V65H0V41.6A2.78,2.78,0,0,1,2.69,38.79Z"/><path d="M34.19,49.92H29.07c.62-3.77,3.27-5.62,8-5.62,5.62,0,8.47,1.85,8.58,5.62v6.93c0,5.62-3.38,8.12-8.89,8.51-4.89.38-8.27-1.89-8.27-6.39.11-4.89,3.65-6.2,8.81-6.7,2.19-.27,3.31-.93,3.31-2s-1.19-1.74-3.31-1.74C35.46,48.49,34.46,49,34.19,49.92Zm6.47,6.7V54.73A22.56,22.56,0,0,1,36.58,56c-2,.39-3.08,1.35-3.08,2.85a2.28,2.28,0,0,0,2.58,2.39A4.21,4.21,0,0,0,40.66,56.62Z"/><path d="M56.64,65.43c-6.16,0-9.32-3.54-9.47-10.55s3.12-10.47,9.39-10.58c4.93,0,7.85,2.19,8.74,6.62H59.72a3.34,3.34,0,0,0-3.31-2.12c-2.7,0-4,2-4,6.08s1.43,6.09,4.28,6a4,4,0,0,0,3.08-1.46,2.36,2.36,0,0,1,1.73-.74H65.3C64.38,62.89,61.37,65.55,56.64,65.43Z"/><path d="M77.47,48.88c-3,0-4.35,2.54-4.35,5.66V65H68V38.79h2.58a2.28,2.28,0,0,1,2.54,2.58v6.08A8.16,8.16,0,0,1,82.74,45q4.28,1.56,4.05,8.2V65H81.7V54.54C81.7,51.11,80.39,48.88,77.47,48.88Z"/><path d="M92.06,38.79a2.17,2.17,0,0,1,2.47,2.5V42.8H89.41v-4Zm0,5.82a2.17,2.17,0,0,1,2.47,2.46V65H89.41V44.61Z"/><path d="M112.16,65c-1.69-.11-2.54-.92-2.54-2.54V52c-.12-2.12-1.27-3.16-3.54-3.16s-3.43,1-3.47,3.16V65H97.42V53c0-5.81,2.92-8.7,8.74-8.7s8.66,2.89,8.62,8.7V65Z"/><path d="M126.18,65.43c-6.16-.19-9.24-3.77-9.24-10.7s3.12-10.39,9.31-10.43c6.47,0,9.51,4,9.13,11.93H122.21c.19,3.12,1.54,4.7,4,4.7a4.72,4.72,0,0,0,3.31-1.46,2.27,2.27,0,0,1,1.74-.74h3.77C134,63.05,131.18,65.43,126.18,65.43Zm-3.89-12.86H130c-.31-2.69-1.58-4.08-3.77-4.08S122.67,49.88,122.29,52.57Z"/><path d="M2.81,72.34H5.47V93.7H18.25v4.82H.12V75.15A2.78,2.78,0,0,1,2.81,72.34Z"/><path d="M28,99c-6.16-.19-9.24-3.78-9.24-10.7s3.12-10.4,9.32-10.44q9.7,0,9.12,11.94H24.07c.19,3.12,1.54,4.69,4,4.69A4.74,4.74,0,0,0,31.42,93a2.24,2.24,0,0,1,1.73-.73h3.77C35.81,96.59,33,99,28,99ZM24.14,86.12H31.8C31.5,83.42,30.22,82,28,82S24.53,83.42,24.14,86.12Z"/><path d="M44.13,83.46H39c.62-3.77,3.28-5.62,8-5.62,5.62,0,8.47,1.85,8.59,5.62v6.93c0,5.62-3.39,8.13-8.89,8.51-4.89.39-8.28-1.89-8.28-6.39.11-4.89,3.66-6.2,8.82-6.7,2.19-.27,3.31-.92,3.31-2S49.32,82,47.21,82C45.4,82,44.4,82.5,44.13,83.46Zm6.46,6.7V88.28a22.31,22.31,0,0,1-4.08,1.23c-2,.38-3.08,1.35-3.08,2.85A2.28,2.28,0,0,0,46,94.74,4.21,4.21,0,0,0,50.59,90.16Z"/><path d="M58,88c.15-6.59,3.65-9.86,10.47-9.86h.73v5.31H67.5c-2.85,0-4.28,1.5-4.28,4.47V98.52H58Z"/><path d="M85.59,98.52c-1.69-.12-2.54-.93-2.54-2.54V85.5c-.11-2.11-1.27-3.15-3.54-3.15s-3.43,1-3.46,3.15v13h-5.2v-12c0-5.81,2.92-8.7,8.74-8.7s8.66,2.89,8.62,8.7v12Z"/><path d="M93.18,72.34a2.16,2.16,0,0,1,2.46,2.5v1.5H90.52v-4Zm0,5.81a2.16,2.16,0,0,1,2.46,2.46V98.52H90.52V78.15Z"/><path d="M112.51,98.52c-1.7-.12-2.54-.93-2.54-2.54V85.5c-.12-2.11-1.27-3.15-3.55-3.15s-3.42,1-3.46,3.15v13h-5.2v-12c0-5.81,2.93-8.7,8.74-8.7s8.66,2.89,8.62,8.7v12Z"/><path d="M116.36,88.35c0-6.77,3.16-10.16,9.47-10.28s9.55,3,9.55,9.09v12c0,5.12-3.24,7.7-9.74,7.81-4.62,0-7.55-2.15-8.74-6.46h5.66c.34,1.46,1.54,2.15,3.65,2.15,2.7,0,4.09-1.58,4.09-4.73V95.9a6.54,6.54,0,0,1-5.82,3C119.05,98.9,116.36,95.36,116.36,88.35Zm13.94.16c0-4.12-1.39-6.16-4.32-6.16s-4.35,2-4.35,6.16c.12,3.92,1.51,5.89,4.28,5.89S130.14,92.43,130.3,88.51Z"/><path d="M48.47,105.46a13.46,13.46,0,0,1,7.9,2.31,9.12,9.12,0,0,1,3.31,6.85H56.37A2.75,2.75,0,0,1,54,113.27a5.52,5.52,0,0,0-5.39-3.15c-4.51,0-6.82,2.85-6.85,8.58s2.31,8.82,7.12,9.16c3.62,0,5.73-2.42,6.31-5.58H52.05a2.67,2.67,0,0,1-2.69-2.69v-1.66H60v14.13H58.68a2.53,2.53,0,0,1-2.62-2l-.23-1.27a8.34,8.34,0,0,1-7.51,3.69c-7.51,0-12-5.81-12-13.47S40.74,105.15,48.47,105.46Z"/><path d="M62.57,121.55c.15-6.58,3.66-9.86,10.47-9.86h.73V117H72c-2.85,0-4.27,1.5-4.27,4.46v10.59h-5.2Z"/><path d="M94.52,122c0,7-3.11,10.55-9.27,10.55S76,129,76,122s3.08-10.58,9.24-10.58S94.52,114.89,94.52,122ZM81.2,122c0,4,1.39,6,4,6s3.92-2.08,4-6.12-1.31-5.93-3.92-5.93S81.2,117.93,81.2,122Z"/><path d="M114.12,123.94c0,3.5-.88,5.81-2.69,6.93a11.85,11.85,0,0,1-6,1.57,10.23,10.23,0,0,1-5.77-1.73c-1.77-1.11-2.66-3.35-2.66-6.77V111.69h5.12V125c0,2.27,1.16,3.38,3.47,3.38S109,127.25,109,125V114.24a2.18,2.18,0,0,1,2.47-2.55h2.61Z"/><path d="M121.48,137.49a2.25,2.25,0,0,1-2.54,2.54h-2.58V120.55c.27-6.08,3.43-9.09,9.55-9.09q9.47,0,9.47,10.28c0,6.93-2.7,10.51-8.13,10.7a6.34,6.34,0,0,1-5.77-3.15Zm4.35-9.63c2.77,0,4.2-2,4.31-5.89q0-6.16-4.39-6.16c-2.92,0-4.31,2-4.27,6.16C121.63,125.9,123.06,127.86,125.83,127.86Z"/><path class="cls-1" d="M151.15,7.33s3.37.44,6.74-3.95,25.93-3.51,28,9.43c0,0,1.55,3.51,12.18,9.65s5.19,14.69,5.19,14.69,6.48,5.27,5.7,9,11.67,10.31,3.11,30.92c0,0,7,12.72-4.92,18.64,0,0,6,7.46-4.41,11.41,0,0,3.37,13.16-14.26,19.73a15.55,15.55,0,0,1-17.11,8.78s-3.11,5.7-11.41,2.41a15.32,15.32,0,0,0-8.82-.88Z"/><g class="cls-2"><path class="cls-3" d="M195,21s-37.4-6.63-36.47-3.17,13.37,1.41,1.48,8.32h0a2,2,0,0,0-1,3.1c1.37,1.87,2.27,5.19-2,10l1.3,3L163,36.36s2.76,1,8.42-2.89a1.45,1.45,0,0,1,2.22.7l1.64,8A5.76,5.76,0,0,1,174,47.05h0A8.69,8.69,0,0,1,163.72,49c-1.08-.54-1.82-1-1.64-1a9.69,9.69,0,0,0,1.59-1.4c.5-.49-.24-1.18-.87-.8l-4.44,2.67-6.39-.6"/><path class="cls-3" d="M189.79,38.57a7,7,0,0,1-1.42,4,3.59,3.59,0,0,1-4.32.78c-1.81-1.24-.82-4.18-2.79-5.24-.75,2.41.48,5.09,2.73,6.69A25.59,25.59,0,0,1,187.32,47c.92.93,1.3,2.43.31,3.3s-2.43.67-3.74.62-2.94.21-3.33,1.27a40.85,40.85,0,0,1,9.87,1.51c-.65,1.53,1.3,2.88,2.13,4.36a5.9,5.9,0,0,1,.63,2.12,8.69,8.69,0,0,1-1,6.23,6,6,0,0,1-6.35,2.4c-1.5-.45-2.57-1.55-3.82-2.37-2.6-1.7-6.94-2-8.78.34-.79,1-1.1,2.34-2.36,2.84a4,4,0,0,1-3.64-.88,8.18,8.18,0,0,1-3.11-4.9"/><path class="cls-3" d="M170.59,51.57a27.91,27.91,0,0,0,2.83,4.15A5.25,5.25,0,0,0,175,57.18a6.67,6.67,0,0,0,1.66.51,34.94,34.94,0,0,0,4,.56"/><path class="cls-3" d="M200.89,60.77c1.92-.46,4.15-.89,5.79.07s1.93,2.87,1.73,4.52-.79,3.32-.42,5a1.78,1.78,0,0,0,.41.85c.66.69,2,.54,2.89.09A4.63,4.63,0,0,0,214,67.19"/><path class="cls-3" d="M193.59,52.78l.81-.92a5.21,5.21,0,0,1,2.78-2,3.92,3.92,0,0,1,3.11.82,7.11,7.11,0,0,1,1.82,2.39,2.72,2.72,0,0,0,.85,1.11,1.2,1.2,0,0,0,1.42,0,4.3,4.3,0,0,0,.34-.59,1.77,1.77,0,0,1,2-.47,3.29,3.29,0,0,1,1.59,1.29,7.37,7.37,0,0,1,1.42,3.84,1.6,1.6,0,0,0,1.39-1A2.59,2.59,0,0,1,212.15,56c.56-.25,1.47.19,1.21.68"/><path class="cls-3" d="M192.34,47.06a1.34,1.34,0,0,1,.24-1.6,5.33,5.33,0,0,1,1.57-1.05,10.46,10.46,0,0,1,3.62-1.29,11,11,0,0,1,3.32.32,8.17,8.17,0,0,1,2,.61,6.32,6.32,0,0,1,2,1.94l1.35,1.75a1.34,1.34,0,0,0,.67.55c.31.08.71-.12.65-.38"/><path class="cls-3" d="M170.14,92.12c-2-.37-4-1-5.19-2.34-1.73-2-.82-5,1.24-6.79s4.95-2.65,7.74-3.46l8.27-2.4a5.14,5.14,0,0,0,2.59-1.3c.61-.72.62-1.69,1.06-2.5.91-1.63,3.29-2.17,5.38-2.52a13.16,13.16,0,0,1,4.05-.27c2.51.35,4.43,2.07,5.91,3.82a5.42,5.42,0,0,1,1.53,2.94,2.34,2.34,0,0,1-2,2.45,3.8,3.8,0,0,1-2.52-.79c-1.05-.71-1.94-1.6-3.07-2.22a4.59,4.59,0,0,0-3.81-.49,4,4,0,0,0-2.13,3.43c-.16,1.34-.14,2.79-1.05,3.89a5.47,5.47,0,0,1-4,1.66c-3.05.11-7.85-2.62-9.12.93C174.11,88.73,175,93.06,170.14,92.12Z"/><path class="cls-3" d="M154.56,101.77a7.18,7.18,0,0,1-1.79-2.36,2.21,2.21,0,0,1,.67-2.6,6.41,6.41,0,0,1,3-.7c2.23-.27,4.37-1.23,6.61-1a10.69,10.69,0,0,1,4.55,1.79A7.36,7.36,0,0,1,170.05,99c1,1.65.31,3.75-1.16,5.13a13.37,13.37,0,0,1-5.64,2.71c-.8.22-1.8.64-1.69,1.35.07.44.58.74,1.09.86,1.49.34,3-.39,4.43-.8a10.73,10.73,0,0,1,6.56.3,1.57,1.57,0,0,1,.64.37c.34.38.16.93-.07,1.36a10.49,10.49,0,0,1-6.27,4.9c-4.36,1.31-9.18.16-13.58-1.07a4.15,4.15,0,0,1-1.58-.67c-.94-.77-.77-2.06-.49-3.14a15.88,15.88,0,0,1,3.17-6.84,10.32,10.32,0,0,1,3.83-2.63c1-.42,2.14-.21,1.35-1.11C158.83,97.7,154.28,101.49,154.56,101.77Z"/><path class="cls-3" d="M159,70.2q-.08,3-.14,5.92a3.31,3.31,0,0,1-.24,1.36,2.43,2.43,0,0,1-3.34.55,3.85,3.85,0,0,1-1.53-3.14c-.05-1.19.22-2.37.27-3.56.15-3.53-1.65-6.94-1.51-10.46a4.22,4.22,0,0,1,1.2-3.06,3.26,3.26,0,0,1,4.08,0c.68.6,1.11,1.52,2,1.77a9.84,9.84,0,0,0,1.88,0c1.64.11,2.65,1.8,2.68,3.31s-.59,3-.75,4.48c-.34,3.27,1.48,6.47,1.21,9.74a15.38,15.38,0,0,1-1.39,4.62c-.7,1.68-1.39,3.36-2.09,5a5.36,5.36,0,0,1-1.69,2.53c-1.91,1.34-4.61.14-6.62-1.07a2.33,2.33,0,0,1-.83-.82,3.13,3.13,0,0,1-.24-2.57c.36-1.22.41-2.35.78-3.57a1.11,1.11,0,0,1,.36-.64,1.23,1.23,0,0,1,.76-.14,4.7,4.7,0,0,1,3,1,1.85,1.85,0,0,1,.22,2.66"/><path class="cls-3" d="M177.89,100.35A23.75,23.75,0,0,1,173.58,98a1,1,0,0,1-.38-.33c-.2-.33.07-.73.4-1,1.17-.85,3.25-.89,3.73-2.13s-1.48-2.78-.77-4a4.32,4.32,0,0,1,5.11.35,4.26,4.26,0,0,1,1.12,4.5c2.05-.13,4.51.38,5.2,2s-.89,3.4-1.88,5a16.68,16.68,0,0,1-2.17,3.47c-1,1-2.91,1.56-4.13.74s-1-2.4-.2-3.46c.62-.8,1.6-1.39,2.25-2.11A14.46,14.46,0,0,1,177.89,100.35Z"/><path class="cls-3" d="M193.57,36.43a22.57,22.57,0,0,1-4.31-2.32,1.06,1.06,0,0,1-.39-.33c-.2-.33.07-.73.4-1,1.17-.85,3.25-.89,3.73-2.13s-1.48-2.79-.76-4.06a4.32,4.32,0,0,1,5.11.36,4.27,4.27,0,0,1,1.11,4.5c2-.14,4.51.37,5.2,2s-.89,3.39-1.88,5A16.75,16.75,0,0,1,199.61,42c-1,1-2.91,1.55-4.12.73a2.37,2.37,0,0,1-.2-3.46c.61-.8,1.59-1.39,2.25-2.11A14,14,0,0,1,193.57,36.43Z"/><path class="cls-3" d="M206.67,73.73a6.11,6.11,0,0,0,2.09.46,16.48,16.48,0,0,1,1.72.06,1.68,1.68,0,0,1,1.32.84c.26.67-.44,1.37-1.23,1.6a11.83,11.83,0,0,1-2.47.22,6.94,6.94,0,0,0-2.6.72,3.5,3.5,0,0,0-1.42,1.2,1.5,1.5,0,0,0,0,1.65,3.6,3.6,0,0,0,2.39,1l3.46.49a3,3,0,0,1,1,.25c.91.49.68,1.76-.14,2.36a8,8,0,0,1-3,1"/><path class="cls-3" d="M157.58,5.4a6.11,6.11,0,0,0,2.09.46,14.06,14.06,0,0,1,1.72.06,1.68,1.68,0,0,1,1.32.84c.26.67-.44,1.37-1.22,1.6a12,12,0,0,1-2.48.22,6.94,6.94,0,0,0-2.6.72A3.43,3.43,0,0,0,155,10.5a1.5,1.5,0,0,0,0,1.65,3.6,3.6,0,0,0,2.39,1l3.46.49a3,3,0,0,1,.95.25c.91.49.68,1.76-.14,2.36a8.21,8.21,0,0,1-3,1"/><path class="cls-3" d="M170.33,129.82c-1.28,3.1-5.63,5-9.36,4.12-.83-.2-1.62-.51-2.46-.69-1.34-.27-2.76-.16-4.11-.41a2.57,2.57,0,0,1-2.32-2.19.67.67,0,0,1,.33-.74,1.24,1.24,0,0,1,.76,0c2.22.58,3.83,1.62,6.14,1.4a5.47,5.47,0,0,0,4.56-3.15,1.48,1.48,0,0,0,0-1.25c-.45-.81-1.89-.77-2.8-.3a19,19,0,0,1-2.6,1.56,3.6,3.6,0,0,1-3.13-.47,2.93,2.93,0,0,1-1.26-2.5c.08-1.58,1.48-2.93,3.14-3.66a18.62,18.62,0,0,1,5.4-1.13c2.46-.27,6.33-.39,7.77,1.78C171.61,124,171.06,128,170.33,129.82Z"/><path class="cls-3" d="M184.22,126.81a6.72,6.72,0,0,1-1.27-.08,5.64,5.64,0,0,1-1.91-.92c-.33.71.2,1.52.91,2s1.57.76,2.26,1.25,1.21,1.32.84,2a1.57,1.57,0,0,1-.3.39,4.32,4.32,0,0,1-4.72.68,1.91,1.91,0,0,1-.62-.45c-1-1.17,1-3,0-4.16a7.21,7.21,0,0,0-.81-.62,2,2,0,0,1-.63-2.12,3.62,3.62,0,0,1,1.5-1.85,6.82,6.82,0,0,1,5.16-.9c1.42.33,5.59,1.54,5.58,3C190.21,127.31,185.77,126.79,184.22,126.81Z"/><path class="cls-3" d="M180.8,27.18a6.78,6.78,0,0,1-1.27-.08,5.46,5.46,0,0,1-1.91-.92c-.33.71.2,1.52.91,2s1.57.77,2.27,1.26,1.2,1.31.83,2a1.57,1.57,0,0,1-.3.39,4.3,4.3,0,0,1-4.72.68,1.91,1.91,0,0,1-.62-.45c-1-1.17,1-3,0-4.15a7.28,7.28,0,0,0-.81-.63,2,2,0,0,1-.63-2.12,3.62,3.62,0,0,1,1.5-1.85,6.82,6.82,0,0,1,5.16-.9c1.42.33,5.59,1.54,5.58,3C186.79,27.69,182.36,27.17,180.8,27.18Z"/><path class="cls-3" d="M183.4,114.09c-1.32.1-2.93.09-3.61-.87s.13-2.26,1.3-2.77A9.62,9.62,0,0,1,185,110a6.81,6.81,0,0,0,3.78-.73c1.41-.92,1.65-2.62,2.48-4a6.79,6.79,0,0,1,5.61-2.88,3,3,0,0,1,2.57,1,2.06,2.06,0,0,1,.17,1.25,11.72,11.72,0,0,1-2.08,4.66,4.18,4.18,0,0,0,4.73-1.75c.87.48.44,1.6-.09,2.36-.93,1.36-1.15,2.5-2.09,3.86a9.77,9.77,0,0,1-2.78,3,4.3,4.3,0,0,1-4.23.27c-1.59-1-1.51-3-.64-4.51.53-.92,1.49-2.1.8-3.1-1.48.94-1.72,2.76-3.22,3.65C188.29,114.16,185.35,113.94,183.4,114.09Z"/><path class="cls-3" d="M194.18,86a1.92,1.92,0,0,1,.24-1.75,2.58,2.58,0,0,1,.83-.46c1.3-.51,2.88-1,4.07-.35,1,.55,1.29,1.73,2.26,2.32a11.06,11.06,0,0,0,2.13.69,4.38,4.38,0,0,1,2.78,4.81c-.27,1.91-1.5,3.6-2.7,5.23L202,98.92a2.33,2.33,0,0,1-1.1,1,1.73,1.73,0,0,1-2.08-1.42,5.46,5.46,0,0,1,.69-2.52,8.28,8.28,0,0,0,.05-6A2.25,2.25,0,0,0,197.71,91c-1.51,1.93-2.59,4.11-4.08,6-3.08-1.07-3.74-1.51-1.79-3.79S194.67,88.84,194.18,86Z"/><path class="cls-3" d="M166.66,3.84c-.1-.6-.23-1.29.24-1.75.22-.21.53.63.83.51,1.29-.51,2.87-1,4.06-.35,1,.56,1.3.76,2.27,1.35a11.19,11.19,0,0,0,2.12.69A4.4,4.4,0,0,1,179,9.1c-.28,1.9-1.5,3.6-2.7,5.23l-1.8,2.45a2.29,2.29,0,0,1-1.1,1,1.73,1.73,0,0,1-2.08-1.42A5.34,5.34,0,0,1,172,13.8a8.31,8.31,0,0,0,.05-6,2.26,2.26,0,0,0-1.85,1.12c-1.51,1.93-2.59,4.11-4.07,6-3.08-1.06-3.75-1.5-1.8-3.78S167.14,6.71,166.66,3.84Z"/></g><polyline class="cls-4" points="162.65 127.38 179.52 125.69 170.12 121.32 162.45 108.06 156.59 96.03 179.83 112.46 181.83 101.36 196.68 107.37 199.12 90.13 176.32 88.35 157.67 78.64 202.87 79.23 208.01 64.98 189.55 69.86 203.1 54.15 163.94 63.09 181.55 51.41 170.06 49.99 158.75 40.13 160.1 16.25 181.48 39.33 177.68 27.21 192.7 26 171.67 8.92 170.06 49.99"/><line class="cls-4" x1="181.55" y1="51.41" x2="176.32" y2="88.35"/><line class="cls-4" x1="192.7" y1="26" x2="203.1" y2="54.15"/><line class="cls-4" x1="208.01" y1="64.98" x2="181.48" y2="39.33"/><line class="cls-4" x1="163.94" y1="63.09" x2="199.12" y2="90.13"/><line class="cls-4" x1="179.83" y1="112.46" x2="157.67" y2="78.64"/><line class="cls-4" x1="197.66" y1="91.8" x2="181.83" y2="101.36"/><line class="cls-4" x1="162.22" y1="62.23" x2="158.75" y2="40.13"/><line class="cls-4" x1="161.11" y1="127.29" x2="162.45" y2="108.06"/><line class="cls-4" x1="196.33" y1="108.47" x2="178.53" y2="112.64"/><path class="cls-5" d="M175,8.92a3.34,3.34,0,1,0-3.34,3.34A3.34,3.34,0,0,0,175,8.92Z"/><path class="cls-5" d="M196,26a3.34,3.34,0,1,0-3.34,3.34A3.34,3.34,0,0,0,196,26Z"/><circle class="cls-6" cx="177.68" cy="27.21" r="3.34"/><path class="cls-5" d="M163.44,16.25a3.34,3.34,0,1,0-3.34,3.34A3.35,3.35,0,0,0,163.44,16.25Z"/><circle class="cls-7" cx="158.75" cy="40.13" r="3.34"/><path class="cls-8" d="M184.82,39.33a3.34,3.34,0,1,0-3.34,3.34A3.33,3.33,0,0,0,184.82,39.33Z"/><path class="cls-9" d="M173.4,50a3.34,3.34,0,1,0-3.34,3.34A3.33,3.33,0,0,0,173.4,50Z"/><path class="cls-10" d="M206.44,54.15a3.34,3.34,0,1,0-3.34,3.34A3.34,3.34,0,0,0,206.44,54.15Z"/><circle class="cls-11" cx="208.01" cy="64.98" r="3.34"/><path class="cls-12" d="M192.89,69.86a3.34,3.34,0,1,0-3.34,3.34A3.35,3.35,0,0,0,192.89,69.86Z"/><path class="cls-13" d="M184.89,51.41a3.34,3.34,0,1,0-3.34,3.34A3.34,3.34,0,0,0,184.89,51.41Z"/><circle class="cls-14" cx="163.94" cy="63.09" r="3.34"/><path class="cls-15" d="M161,78.64A3.34,3.34,0,1,0,157.67,82,3.34,3.34,0,0,0,161,78.64Z"/><path class="cls-16" d="M179.51,87.36a3.34,3.34,0,1,0-2.21,4.18A3.35,3.35,0,0,0,179.51,87.36Z"/><path class="cls-17" d="M202.58,82.55a3.34,3.34,0,1,0-3-3.62A3.33,3.33,0,0,0,202.58,82.55Z"/><path class="cls-18" d="M198.82,93.45a3.34,3.34,0,1,0-3-3.62A3.33,3.33,0,0,0,198.82,93.45Z"/><path class="cls-19" d="M196.38,110.7a3.34,3.34,0,1,0-3-3.62A3.34,3.34,0,0,0,196.38,110.7Z"/><path class="cls-20" d="M179.53,115.79a3.34,3.34,0,1,0-3-3.62A3.34,3.34,0,0,0,179.53,115.79Z"/><path class="cls-21" d="M181.54,104.68a3.34,3.34,0,1,0-3-3.62A3.33,3.33,0,0,0,181.54,104.68Z"/><path class="cls-22" d="M162.15,111.39a3.34,3.34,0,1,0-3-3.62A3.34,3.34,0,0,0,162.15,111.39Z"/><path class="cls-23" d="M157.29,99.35a3.34,3.34,0,1,0-3-3.62A3.33,3.33,0,0,0,157.29,99.35Z"/><path class="cls-24" d="M169.83,124.65a3.34,3.34,0,1,0-3-3.62A3.34,3.34,0,0,0,169.83,124.65Z"/><path class="cls-25" d="M162.35,130.71a3.34,3.34,0,1,0-3-3.62A3.34,3.34,0,0,0,162.35,130.71Z"/><path class="cls-26" d="M180.41,129.72a3.34,3.34,0,1,0-3-3.62A3.34,3.34,0,0,0,180.41,129.72Z"/></g></g></svg>