<?xml version="1.0" encoding="UTF-8" standalone="no"?>
<svg
   viewBox="0 0 216.1 140.05"
   version="1.1"
   id="svg172"
   sodipodi:docname="ml.svg"
   inkscape:version="1.1.1 (3bf5ae0d25, 2021-09-20)"
   xmlns:inkscape="http://www.inkscape.org/namespaces/inkscape"
   xmlns:sodipodi="http://sodipodi.sourceforge.net/DTD/sodipodi-0.dtd"
   xmlns="http://www.w3.org/2000/svg"
   xmlns:svg="http://www.w3.org/2000/svg">
  <sodipodi:namedview
     id="namedview174"
     pagecolor="#ffffff"
     bordercolor="#666666"
     borderopacity="1.0"
     inkscape:pageshadow="2"
     inkscape:pageopacity="0.0"
     inkscape:pagecheckerboard="0"
     showgrid="false"
     inkscape:zoom="1.8164349"
     inkscape:cx="-76.798787"
     inkscape:cy="77.899845"
     inkscape:window-width="1920"
     inkscape:window-height="1029"
     inkscape:window-x="0"
     inkscape:window-y="27"
     inkscape:window-maximized="1"
     inkscape:current-layer="Layer_2" />
  <defs
     id="defs4">
    <style
       id="style2">.cls-1,.cls-3,.cls-4{fill:none;stroke-miterlimit:10;}.cls-1{stroke:#9b2412;}.cls-1,.cls-3{stroke-width:2px;}.cls-2{opacity:0.13;}.cls-3{stroke:#de979e;}.cls-4{stroke:#9c2115;}.cls-5{fill:#ef993a;}.cls-6{fill:#ed8d38;}.cls-7{fill:#ee7e33;}.cls-8{fill:#ee8034;}.cls-9{fill:#f47230;}.cls-10{fill:#ef7330;}.cls-11{fill:#ea6833;}.cls-12{fill:#f05f27;}.cls-13{fill:#ea772e;}.cls-14{fill:#eb652a;}.cls-15{fill:#e75326;}.cls-16{fill:#ea4926;}.cls-17{fill:#ee552a;}.cls-18{fill:#e94d26;}.cls-19{fill:#e63e24;}.cls-20{fill:#e73a26;}.cls-21{fill:#e83f24;}.cls-22{fill:#e63b24;}.cls-23{fill:#eb411d;}.cls-24{fill:#de3b22;}.cls-25{fill:#e43622;}.cls-26{fill:#e5381d;}</style>
  </defs>
  <g
     id="Layer_2"
     data-name="Layer 2">
    <g
       id="OBJECTS"
       transform="translate(0.19696689,-0.16625685)">
      <path
         d="m 2.73,5.25 h 2.89 l 10.67,18 v -18 h 5.27 V 31.43 H 16 l -10.67,-18 v 18 H 0 V 8.06 A 2.78,2.78 0 0 1 2.73,5.25 Z"
         id="path6"
         style="fill:#ffffff" />
      <path
         d="m 33.46,31.89 c -6.16,-0.19 -9.24,-3.77 -9.24,-10.7 0,-6.93 3.12,-10.4 9.32,-10.44 q 9.69,0 9.12,11.94 H 29.5 c 0.19,3.12 1.54,4.69 4,4.69 a 4.74,4.74 0 0 0 3.31,-1.46 2.24,2.24 0 0 1 1.73,-0.73 h 3.77 c -1.07,4.31 -3.85,6.7 -8.85,6.7 z M 29.57,19 h 7.66 c -0.31,-2.66 -1.58,-4 -3.77,-4 -2.19,0 -3.46,1.34 -3.89,4 z"
         id="path8"
         style="fill:#ffffff" />
      <path
         d="m 62.18,23.3 c 0,3.51 -0.88,5.82 -2.69,6.93 a 11.85,11.85 0 0 1 -6,1.58 10.31,10.31 0 0 1 -5.77,-1.73 C 45.95,28.96 45.06,26.73 45.06,23.3 V 11.06 h 5.12 v 13.28 c 0,2.27 1.16,3.39 3.47,3.39 2.31,0 3.46,-1.12 3.46,-3.39 V 13.6 a 2.18,2.18 0 0 1 2.47,-2.54 h 2.61 z"
         id="path10"
         style="fill:#ffffff" />
      <path
         d="m 64.42,20.92 c 0.15,-6.59 3.66,-9.86 10.47,-9.86 h 0.73 v 5.31 h -1.73 c -2.85,0 -4.27,1.51 -4.27,4.47 v 10.59 h -5.2 z"
         id="path12"
         style="fill:#ffffff" />
      <path
         d="m 83.29,16.37 h -5.13 c 0.62,-3.77 3.28,-5.62 8,-5.62 5.62,0 8.47,1.85 8.59,5.62 v 6.93 c 0,5.62 -3.39,8.13 -8.89,8.51 -4.89,0.39 -8.28,-1.88 -8.28,-6.39 0.11,-4.89 3.66,-6.2 8.81,-6.7 2.2,-0.27 3.32,-0.92 3.32,-2 0,-1.08 -1.23,-1.72 -3.35,-1.72 -1.81,0 -2.81,0.41 -3.07,1.37 z m 6.46,6.7 v -1.88 a 22.31,22.31 0 0 1 -4.08,1.23 c -2,0.38 -3.08,1.35 -3.08,2.85 a 2.28,2.28 0 0 0 2.58,2.38 4.21,4.21 0 0 0 4.58,-4.58 z"
         id="path14"
         style="fill:#ffffff" />
      <path
         d="M 103.08,7.75 V 31.43 H 98 V 5.25 h 2.65 a 2.51,2.51 0 0 1 2.43,2.5 z"
         id="path16"
         style="fill:#ffffff" />
      <path
         d="m 129.53,10.6 c 0,3.31 -2,5.2 -4.28,6.62 L 129,22 a 13.32,13.32 0 0 0 1.31,-4.43 h 2.77 c 1.19,0 1.77,0.65 1.65,2 a 10.11,10.11 0 0 1 -2.85,6 l 4.86,5.85 h -6.16 l -1.81,-2.2 a 8.51,8.51 0 0 1 -3.43,2.2 c -3.7,0.88 -7.66,0.46 -10,-1.42 A 7.23,7.23 0 0 1 113,24.34 c 0,-4.31 2.5,-6.12 5.66,-7.89 l -1.08,-1.35 c -1.84,-2.81 -2.27,-6.27 0.31,-8.54 a 7.75,7.75 0 0 1 5,-1.74 c 3.79,0 6.64,2.08 6.64,5.78 z m -9.71,10.16 A 3.8,3.8 0 0 0 118.17,24 c 0,2.27 1.23,3.42 3.7,3.58 A 5,5 0 0 0 126,25.73 l -4.81,-6 z m 0.89,-10.08 a 3.87,3.87 0 0 0 1.08,2.32 l 0.88,1.15 a 3.86,3.86 0 0 0 2.33,-3.55 1.85,1.85 0 0 0 -2.12,-2 1.93,1.93 0 0 0 -2.17,2.08 z"
         id="path18"
         style="fill:#ffffff" />
      <path
         d="m 2.69,38.79 h 5.2 l 5.28,19.94 5.12,-19.94 h 8 V 65 h -5 V 43.84 L 15.86,65 H 10.39 L 5,43.84 V 65 H 0 V 41.6 a 2.78,2.78 0 0 1 2.69,-2.81 z"
         id="path20"
         style="fill:#ffffff" />
      <path
         d="m 34.19,49.92 h -5.12 c 0.62,-3.77 3.27,-5.62 8,-5.62 5.62,0 8.47,1.85 8.58,5.62 v 6.93 c 0,5.62 -3.38,8.12 -8.89,8.51 -4.89,0.38 -8.27,-1.89 -8.27,-6.39 0.11,-4.89 3.65,-6.2 8.81,-6.7 2.19,-0.27 3.31,-0.93 3.31,-2 0,-1.07 -1.19,-1.74 -3.31,-1.74 -1.84,-0.04 -2.84,0.47 -3.11,1.39 z m 6.47,6.7 V 54.73 A 22.56,22.56 0 0 1 36.58,56 c -2,0.39 -3.08,1.35 -3.08,2.85 a 2.28,2.28 0 0 0 2.58,2.39 4.21,4.21 0 0 0 4.58,-4.62 z"
         id="path22"
         style="fill:#ffffff" />
      <path
         d="m 56.64,65.43 c -6.16,0 -9.32,-3.54 -9.47,-10.55 -0.15,-7.01 3.12,-10.47 9.39,-10.58 4.93,0 7.85,2.19 8.74,6.62 H 59.72 A 3.34,3.34 0 0 0 56.41,48.8 c -2.7,0 -4,2 -4,6.08 0,4.08 1.43,6.09 4.28,6 a 4,4 0 0 0 3.08,-1.46 2.36,2.36 0 0 1 1.73,-0.74 h 3.8 c -0.92,4.21 -3.93,6.87 -8.66,6.75 z"
         id="path24"
         style="fill:#ffffff" />
      <path
         d="m 77.47,48.88 c -3,0 -4.35,2.54 -4.35,5.66 V 65 H 68 V 38.79 h 2.58 a 2.28,2.28 0 0 1 2.54,2.58 v 6.08 A 8.16,8.16 0 0 1 82.74,45 q 4.28,1.56 4.05,8.2 V 65 H 81.7 V 54.54 c 0,-3.43 -1.31,-5.66 -4.23,-5.66 z"
         id="path26"
         style="fill:#ffffff" />
      <path
         d="m 92.06,38.79 a 2.17,2.17 0 0 1 2.47,2.5 v 1.51 h -5.12 v -4 z m 0,5.82 a 2.17,2.17 0 0 1 2.47,2.46 V 65 H 89.41 V 44.61 Z"
         id="path28"
         style="fill:#ffffff" />
      <path
         d="m 112.16,65 c -1.69,-0.11 -2.54,-0.92 -2.54,-2.54 V 52 c -0.12,-2.12 -1.27,-3.16 -3.54,-3.16 -2.27,0 -3.43,1 -3.47,3.16 V 65 H 97.42 V 53 c 0,-5.81 2.92,-8.7 8.74,-8.7 5.82,0 8.66,2.89 8.62,8.7 v 12 z"
         id="path30"
         style="fill:#ffffff" />
      <path
         d="m 126.18,65.43 c -6.16,-0.19 -9.24,-3.77 -9.24,-10.7 0,-6.93 3.12,-10.39 9.31,-10.43 6.47,0 9.51,4 9.13,11.93 h -13.17 c 0.19,3.12 1.54,4.7 4,4.7 a 4.72,4.72 0 0 0 3.31,-1.46 2.27,2.27 0 0 1 1.74,-0.74 h 3.77 c -1.03,4.32 -3.85,6.7 -8.85,6.7 z M 122.29,52.57 H 130 c -0.31,-2.69 -1.58,-4.08 -3.77,-4.08 -2.19,0 -3.56,1.39 -3.94,4.08 z"
         id="path32"
         style="fill:#ffffff" />
      <path
         d="M 2.81,72.34 H 5.47 V 93.7 h 12.78 v 4.82 H 0.12 V 75.15 a 2.78,2.78 0 0 1 2.69,-2.81 z"
         id="path34"
         style="fill:#ffffff" />
      <path
         d="m 28,99 c -6.16,-0.19 -9.24,-3.78 -9.24,-10.7 0,-6.92 3.12,-10.4 9.32,-10.44 q 9.7,0 9.12,11.94 H 24.07 c 0.19,3.12 1.54,4.69 4,4.69 A 4.74,4.74 0 0 0 31.42,93 2.24,2.24 0 0 1 33.15,92.27 h 3.77 C 35.81,96.59 33,99 28,99 Z M 24.14,86.12 H 31.8 C 31.5,83.42 30.22,82 28,82 c -2.22,0 -3.47,1.42 -3.86,4.12 z"
         id="path36"
         style="fill:#ffffff" />
      <path
         d="M 44.13,83.46 H 39 c 0.62,-3.77 3.28,-5.62 8,-5.62 5.62,0 8.47,1.85 8.59,5.62 v 6.93 c 0,5.62 -3.39,8.13 -8.89,8.51 -4.89,0.39 -8.28,-1.89 -8.28,-6.39 0.11,-4.89 3.66,-6.2 8.82,-6.7 2.19,-0.27 3.31,-0.92 3.31,-2 0,-1.08 -1.23,-1.81 -3.34,-1.81 -1.81,0 -2.81,0.5 -3.08,1.46 z m 6.46,6.7 v -1.88 a 22.31,22.31 0 0 1 -4.08,1.23 c -2,0.38 -3.08,1.35 -3.08,2.85 a 2.28,2.28 0 0 0 2.57,2.38 4.21,4.21 0 0 0 4.59,-4.58 z"
         id="path38"
         style="fill:#ffffff" />
      <path
         d="m 58,88 c 0.15,-6.59 3.65,-9.86 10.47,-9.86 h 0.73 v 5.31 h -1.7 c -2.85,0 -4.28,1.5 -4.28,4.47 v 10.6 H 58 Z"
         id="path40"
         style="fill:#ffffff" />
      <path
         d="M 85.59,98.52 C 83.9,98.4 83.05,97.59 83.05,95.98 V 85.5 c -0.11,-2.11 -1.27,-3.15 -3.54,-3.15 -2.27,0 -3.43,1 -3.46,3.15 v 13 h -5.2 v -12 c 0,-5.81 2.92,-8.7 8.74,-8.7 5.82,0 8.66,2.89 8.62,8.7 v 12 z"
         id="path42"
         style="fill:#ffffff" />
      <path
         d="m 93.18,72.34 a 2.16,2.16 0 0 1 2.46,2.5 v 1.5 h -5.12 v -4 z m 0,5.81 a 2.16,2.16 0 0 1 2.46,2.46 V 98.52 H 90.52 V 78.15 Z"
         id="path44"
         style="fill:#ffffff" />
      <path
         d="m 112.51,98.52 c -1.7,-0.12 -2.54,-0.93 -2.54,-2.54 V 85.5 c -0.12,-2.11 -1.27,-3.15 -3.55,-3.15 -2.28,0 -3.42,1 -3.46,3.15 v 13 h -5.2 v -12 c 0,-5.81 2.93,-8.7 8.74,-8.7 5.81,0 8.66,2.89 8.62,8.7 v 12 z"
         id="path46"
         style="fill:#ffffff" />
      <path
         d="m 116.36,88.35 c 0,-6.77 3.16,-10.16 9.47,-10.28 6.31,-0.12 9.55,3 9.55,9.09 v 12 c 0,5.12 -3.24,7.7 -9.74,7.81 -4.62,0 -7.55,-2.15 -8.74,-6.46 h 5.66 c 0.34,1.46 1.54,2.15 3.65,2.15 2.7,0 4.09,-1.58 4.09,-4.73 V 95.9 a 6.54,6.54 0 0 1 -5.82,3 c -5.43,0 -8.12,-3.54 -8.12,-10.55 z m 13.94,0.16 c 0,-4.12 -1.39,-6.16 -4.32,-6.16 -2.93,0 -4.35,2 -4.35,6.16 0.12,3.92 1.51,5.89 4.28,5.89 2.77,0 4.23,-1.97 4.39,-5.89 z"
         id="path48"
         style="fill:#ffffff" />
      <path
         d="m 48.47,105.46 a 13.46,13.46 0 0 1 7.9,2.31 9.12,9.12 0 0 1 3.31,6.85 H 56.37 A 2.75,2.75 0 0 1 54,113.27 5.52,5.52 0 0 0 48.61,110.12 c -4.51,0 -6.82,2.85 -6.85,8.58 -0.03,5.73 2.31,8.82 7.12,9.16 3.62,0 5.73,-2.42 6.31,-5.58 h -3.14 a 2.67,2.67 0 0 1 -2.69,-2.69 v -1.66 H 60 v 14.13 h -1.32 a 2.53,2.53 0 0 1 -2.62,-2 l -0.23,-1.27 a 8.34,8.34 0 0 1 -7.51,3.69 c -7.51,0 -12,-5.81 -12,-13.47 0,-7.66 4.42,-13.86 12.15,-13.55 z"
         id="path50"
         style="fill:#ffffff" />
      <path
         d="m 62.57,121.55 c 0.15,-6.58 3.66,-9.86 10.47,-9.86 h 0.73 V 117 H 72 c -2.85,0 -4.27,1.5 -4.27,4.46 v 10.59 h -5.2 z"
         id="path52"
         style="fill:#ffffff" />
      <path
         d="m 94.52,122 c 0,7 -3.11,10.55 -9.27,10.55 C 79.09,132.55 76,129 76,122 c 0,-7 3.08,-10.58 9.24,-10.58 6.16,0 9.28,3.47 9.28,10.58 z m -13.32,0 c 0,4 1.39,6 4,6 2.61,0 3.92,-2.08 4,-6.12 0.08,-4.04 -1.31,-5.93 -3.92,-5.93 -2.61,0 -4.08,1.98 -4.08,6.05 z"
         id="path54"
         style="fill:#ffffff" />
      <path
         d="m 114.12,123.94 c 0,3.5 -0.88,5.81 -2.69,6.93 a 11.85,11.85 0 0 1 -6,1.57 10.23,10.23 0 0 1 -5.77,-1.73 C 97.89,129.6 97,127.36 97,123.94 v -12.25 h 5.12 V 125 c 0,2.27 1.16,3.38 3.47,3.38 2.31,0 3.41,-1.13 3.41,-3.38 v -10.76 a 2.18,2.18 0 0 1 2.47,-2.55 h 2.61 z"
         id="path56"
         style="fill:#ffffff" />
      <path
         d="m 121.48,137.49 a 2.25,2.25 0 0 1 -2.54,2.54 h -2.58 v -19.48 c 0.27,-6.08 3.43,-9.09 9.55,-9.09 q 9.47,0 9.47,10.28 c 0,6.93 -2.7,10.51 -8.13,10.7 a 6.34,6.34 0 0 1 -5.77,-3.15 z m 4.35,-9.63 c 2.77,0 4.2,-2 4.31,-5.89 q 0,-6.16 -4.39,-6.16 c -2.92,0 -4.31,2 -4.27,6.16 0.15,3.93 1.58,5.89 4.35,5.89 z"
         id="path58"
         style="fill:#ffffff" />
      <path
         class="cls-1"
         d="m 151.15,7.33 c 0,0 3.37,0.44 6.74,-3.95 3.37,-4.39 25.93,-3.51 28,9.43 0,0 1.55,3.51 12.18,9.65 10.63,6.14 5.19,14.69 5.19,14.69 0,0 6.48,5.27 5.7,9 -0.78,3.73 11.67,10.31 3.11,30.92 0,0 7,12.72 -4.92,18.64 0,0 6,7.46 -4.41,11.41 0,0 3.37,13.16 -14.26,19.73 a 15.55,15.55 0 0 1 -17.11,8.78 c 0,0 -3.11,5.7 -11.41,2.41 a 15.32,15.32 0 0 0 -8.82,-0.88 z"
         id="path60"
         style="fill:#ffffff;fill-opacity:1;stroke:#ffffff;stroke-opacity:1" />
      <g
         class="cls-2"
         id="g100"
         style="fill:#800000">
        <path
           class="cls-3"
           d="m 195,21 c 0,0 -37.4,-6.63 -36.47,-3.17 0.93,3.46 13.37,1.41 1.48,8.32 v 0 a 2,2 0 0 0 -1,3.1 c 1.37,1.87 2.27,5.19 -2,10 l 1.3,3 4.69,-5.89 c 0,0 2.76,1 8.42,-2.89 a 1.45,1.45 0 0 1 2.22,0.7 l 1.64,8 A 5.76,5.76 0 0 1 174,47.05 v 0 A 8.69,8.69 0 0 1 163.72,49 c -1.08,-0.54 -1.82,-1 -1.64,-1 a 9.69,9.69 0 0 0 1.59,-1.4 c 0.5,-0.49 -0.24,-1.18 -0.87,-0.8 l -4.44,2.67 -6.39,-0.6"
           id="path62"
           style="fill:#800000" />
        <path
           class="cls-3"
           d="m 189.79,38.57 a 7,7 0 0 1 -1.42,4 3.59,3.59 0 0 1 -4.32,0.78 c -1.81,-1.24 -0.82,-4.18 -2.79,-5.24 -0.75,2.41 0.48,5.09 2.73,6.69 a 25.59,25.59 0 0 1 3.33,2.2 c 0.92,0.93 1.3,2.43 0.31,3.3 -0.99,0.87 -2.43,0.67 -3.74,0.62 -1.31,-0.05 -2.94,0.21 -3.33,1.27 a 40.85,40.85 0 0 1 9.87,1.51 c -0.65,1.53 1.3,2.88 2.13,4.36 a 5.9,5.9 0 0 1 0.63,2.12 8.69,8.69 0 0 1 -1,6.23 6,6 0 0 1 -6.35,2.4 c -1.5,-0.45 -2.57,-1.55 -3.82,-2.37 -2.6,-1.7 -6.94,-2 -8.78,0.34 -0.79,1 -1.1,2.34 -2.36,2.84 a 4,4 0 0 1 -3.64,-0.88 8.18,8.18 0 0 1 -3.11,-4.9"
           id="path64"
           style="fill:#800000" />
        <path
           class="cls-3"
           d="m 170.59,51.57 a 27.91,27.91 0 0 0 2.83,4.15 5.25,5.25 0 0 0 1.58,1.46 6.67,6.67 0 0 0 1.66,0.51 34.94,34.94 0 0 0 4,0.56"
           id="path66"
           style="fill:#800000" />
        <path
           class="cls-3"
           d="m 200.89,60.77 c 1.92,-0.46 4.15,-0.89 5.79,0.07 1.64,0.96 1.93,2.87 1.73,4.52 -0.2,1.65 -0.79,3.32 -0.42,5 a 1.78,1.78 0 0 0 0.41,0.85 c 0.66,0.69 2,0.54 2.89,0.09 A 4.63,4.63 0 0 0 214,67.19"
           id="path68"
           style="fill:#800000" />
        <path
           class="cls-3"
           d="m 193.59,52.78 0.81,-0.92 a 5.21,5.21 0 0 1 2.78,-2 3.92,3.92 0 0 1 3.11,0.82 7.11,7.11 0 0 1 1.82,2.39 2.72,2.72 0 0 0 0.85,1.11 1.2,1.2 0 0 0 1.42,0 4.3,4.3 0 0 0 0.34,-0.59 1.77,1.77 0 0 1 2,-0.47 3.29,3.29 0 0 1 1.59,1.29 7.37,7.37 0 0 1 1.42,3.84 1.6,1.6 0 0 0 1.39,-1 2.59,2.59 0 0 1 1.03,-1.25 c 0.56,-0.25 1.47,0.19 1.21,0.68"
           id="path70"
           style="fill:#800000" />
        <path
           class="cls-3"
           d="m 192.34,47.06 a 1.34,1.34 0 0 1 0.24,-1.6 5.33,5.33 0 0 1 1.57,-1.05 10.46,10.46 0 0 1 3.62,-1.29 11,11 0 0 1 3.32,0.32 8.17,8.17 0 0 1 2,0.61 6.32,6.32 0 0 1 2,1.94 l 1.35,1.75 a 1.34,1.34 0 0 0 0.67,0.55 c 0.31,0.08 0.71,-0.12 0.65,-0.38"
           id="path72"
           style="fill:#800000" />
        <path
           class="cls-3"
           d="m 170.14,92.12 c -2,-0.37 -4,-1 -5.19,-2.34 -1.73,-2 -0.82,-5 1.24,-6.79 2.06,-1.79 4.95,-2.65 7.74,-3.46 l 8.27,-2.4 a 5.14,5.14 0 0 0 2.59,-1.3 c 0.61,-0.72 0.62,-1.69 1.06,-2.5 0.91,-1.63 3.29,-2.17 5.38,-2.52 a 13.16,13.16 0 0 1 4.05,-0.27 c 2.51,0.35 4.43,2.07 5.91,3.82 a 5.42,5.42 0 0 1 1.53,2.94 2.34,2.34 0 0 1 -2,2.45 3.8,3.8 0 0 1 -2.52,-0.79 c -1.05,-0.71 -1.94,-1.6 -3.07,-2.22 a 4.59,4.59 0 0 0 -3.81,-0.49 4,4 0 0 0 -2.13,3.43 c -0.16,1.34 -0.14,2.79 -1.05,3.89 a 5.47,5.47 0 0 1 -4,1.66 c -3.05,0.11 -7.85,-2.62 -9.12,0.93 -0.91,2.57 -0.02,6.9 -4.88,5.96 z"
           id="path74"
           style="fill:#800000" />
        <path
           class="cls-3"
           d="m 154.56,101.77 a 7.18,7.18 0 0 1 -1.79,-2.36 2.21,2.21 0 0 1 0.67,-2.6 6.41,6.41 0 0 1 3,-0.7 c 2.23,-0.27 4.37,-1.23 6.61,-1 a 10.69,10.69 0 0 1 4.55,1.79 7.36,7.36 0 0 1 2.45,2.1 c 1,1.65 0.31,3.75 -1.16,5.13 a 13.37,13.37 0 0 1 -5.64,2.71 c -0.8,0.22 -1.8,0.64 -1.69,1.35 0.07,0.44 0.58,0.74 1.09,0.86 1.49,0.34 3,-0.39 4.43,-0.8 a 10.73,10.73 0 0 1 6.56,0.3 1.57,1.57 0 0 1 0.64,0.37 c 0.34,0.38 0.16,0.93 -0.07,1.36 a 10.49,10.49 0 0 1 -6.27,4.9 c -4.36,1.31 -9.18,0.16 -13.58,-1.07 a 4.15,4.15 0 0 1 -1.58,-0.67 c -0.94,-0.77 -0.77,-2.06 -0.49,-3.14 a 15.88,15.88 0 0 1 3.17,-6.84 10.32,10.32 0 0 1 3.83,-2.63 c 1,-0.42 2.14,-0.21 1.35,-1.11 -1.81,-2.02 -6.36,1.77 -6.08,2.05 z"
           id="path76"
           style="fill:#800000" />
        <path
           class="cls-3"
           d="m 159,70.2 q -0.08,3 -0.14,5.92 a 3.31,3.31 0 0 1 -0.24,1.36 2.43,2.43 0 0 1 -3.34,0.55 3.85,3.85 0 0 1 -1.53,-3.14 c -0.05,-1.19 0.22,-2.37 0.27,-3.56 0.15,-3.53 -1.65,-6.94 -1.51,-10.46 a 4.22,4.22 0 0 1 1.2,-3.06 3.26,3.26 0 0 1 4.08,0 c 0.68,0.6 1.11,1.52 2,1.77 a 9.84,9.84 0 0 0 1.88,0 c 1.64,0.11 2.65,1.8 2.68,3.31 0.03,1.51 -0.59,3 -0.75,4.48 -0.34,3.27 1.48,6.47 1.21,9.74 a 15.38,15.38 0 0 1 -1.39,4.62 c -0.7,1.68 -1.39,3.36 -2.09,5 a 5.36,5.36 0 0 1 -1.69,2.53 c -1.91,1.34 -4.61,0.14 -6.62,-1.07 a 2.33,2.33 0 0 1 -0.83,-0.82 3.13,3.13 0 0 1 -0.24,-2.57 c 0.36,-1.22 0.41,-2.35 0.78,-3.57 a 1.11,1.11 0 0 1 0.36,-0.64 1.23,1.23 0 0 1 0.76,-0.14 4.7,4.7 0 0 1 3,1 1.85,1.85 0 0 1 0.22,2.66"
           id="path78"
           style="fill:#800000" />
        <path
           class="cls-3"
           d="M 177.89,100.35 A 23.75,23.75 0 0 1 173.58,98 1,1 0 0 1 173.2,97.67 c -0.2,-0.33 0.07,-0.73 0.4,-1 1.17,-0.85 3.25,-0.89 3.73,-2.13 0.48,-1.24 -1.48,-2.78 -0.77,-4 a 4.32,4.32 0 0 1 5.11,0.35 4.26,4.26 0 0 1 1.12,4.5 c 2.05,-0.13 4.51,0.38 5.2,2 0.69,1.62 -0.89,3.4 -1.88,5 a 16.68,16.68 0 0 1 -2.17,3.47 c -1,1 -2.91,1.56 -4.13,0.74 -1.22,-0.82 -1,-2.4 -0.2,-3.46 0.62,-0.8 1.6,-1.39 2.25,-2.11 a 14.46,14.46 0 0 1 -3.97,-0.68 z"
           id="path80"
           style="fill:#800000" />
        <path
           class="cls-3"
           d="m 193.57,36.43 a 22.57,22.57 0 0 1 -4.31,-2.32 1.06,1.06 0 0 1 -0.39,-0.33 c -0.2,-0.33 0.07,-0.73 0.4,-1 1.17,-0.85 3.25,-0.89 3.73,-2.13 0.48,-1.24 -1.48,-2.79 -0.76,-4.06 a 4.32,4.32 0 0 1 5.11,0.36 4.27,4.27 0 0 1 1.11,4.5 c 2,-0.14 4.51,0.37 5.2,2 0.69,1.63 -0.89,3.39 -1.88,5 A 16.75,16.75 0 0 1 199.61,42 c -1,1 -2.91,1.55 -4.12,0.73 a 2.37,2.37 0 0 1 -0.2,-3.46 c 0.61,-0.8 1.59,-1.39 2.25,-2.11 a 14,14 0 0 1 -3.97,-0.73 z"
           id="path82"
           style="fill:#800000" />
        <path
           class="cls-3"
           d="m 206.67,73.73 a 6.11,6.11 0 0 0 2.09,0.46 16.48,16.48 0 0 1 1.72,0.06 1.68,1.68 0 0 1 1.32,0.84 c 0.26,0.67 -0.44,1.37 -1.23,1.6 a 11.83,11.83 0 0 1 -2.47,0.22 6.94,6.94 0 0 0 -2.6,0.72 3.5,3.5 0 0 0 -1.42,1.2 1.5,1.5 0 0 0 0,1.65 3.6,3.6 0 0 0 2.39,1 l 3.46,0.49 a 3,3 0 0 1 1,0.25 c 0.91,0.49 0.68,1.76 -0.14,2.36 a 8,8 0 0 1 -3,1"
           id="path84"
           style="fill:#800000" />
        <path
           class="cls-3"
           d="m 157.58,5.4 a 6.11,6.11 0 0 0 2.09,0.46 14.06,14.06 0 0 1 1.72,0.06 1.68,1.68 0 0 1 1.32,0.84 c 0.26,0.67 -0.44,1.37 -1.22,1.6 a 12,12 0 0 1 -2.48,0.22 6.94,6.94 0 0 0 -2.6,0.72 3.43,3.43 0 0 0 -1.41,1.2 1.5,1.5 0 0 0 0,1.65 3.6,3.6 0 0 0 2.39,1 l 3.46,0.49 a 3,3 0 0 1 0.95,0.25 c 0.91,0.49 0.68,1.76 -0.14,2.36 a 8.21,8.21 0 0 1 -3,1"
           id="path86"
           style="fill:#800000" />
        <path
           class="cls-3"
           d="m 170.33,129.82 c -1.28,3.1 -5.63,5 -9.36,4.12 -0.83,-0.2 -1.62,-0.51 -2.46,-0.69 -1.34,-0.27 -2.76,-0.16 -4.11,-0.41 a 2.57,2.57 0 0 1 -2.32,-2.19 0.67,0.67 0 0 1 0.33,-0.74 1.24,1.24 0 0 1 0.76,0 c 2.22,0.58 3.83,1.62 6.14,1.4 a 5.47,5.47 0 0 0 4.56,-3.15 1.48,1.48 0 0 0 0,-1.25 c -0.45,-0.81 -1.89,-0.77 -2.8,-0.3 a 19,19 0 0 1 -2.6,1.56 3.6,3.6 0 0 1 -3.13,-0.47 2.93,2.93 0 0 1 -1.26,-2.5 c 0.08,-1.58 1.48,-2.93 3.14,-3.66 a 18.62,18.62 0 0 1 5.4,-1.13 c 2.46,-0.27 6.33,-0.39 7.77,1.78 1.22,1.81 0.67,5.81 -0.06,7.63 z"
           id="path88"
           style="fill:#800000" />
        <path
           class="cls-3"
           d="m 184.22,126.81 a 6.72,6.72 0 0 1 -1.27,-0.08 5.64,5.64 0 0 1 -1.91,-0.92 c -0.33,0.71 0.2,1.52 0.91,2 0.71,0.48 1.57,0.76 2.26,1.25 0.69,0.49 1.21,1.32 0.84,2 a 1.57,1.57 0 0 1 -0.3,0.39 4.32,4.32 0 0 1 -4.72,0.68 1.91,1.91 0 0 1 -0.62,-0.45 c -1,-1.17 1,-3 0,-4.16 a 7.21,7.21 0 0 0 -0.81,-0.62 2,2 0 0 1 -0.63,-2.12 3.62,3.62 0 0 1 1.5,-1.85 6.82,6.82 0 0 1 5.16,-0.9 c 1.42,0.33 5.59,1.54 5.58,3 0,2.28 -4.44,1.76 -5.99,1.78 z"
           id="path90"
           style="fill:#800000" />
        <path
           class="cls-3"
           d="m 180.8,27.18 a 6.78,6.78 0 0 1 -1.27,-0.08 5.46,5.46 0 0 1 -1.91,-0.92 c -0.33,0.71 0.2,1.52 0.91,2 0.71,0.48 1.57,0.77 2.27,1.26 0.7,0.49 1.2,1.31 0.83,2 a 1.57,1.57 0 0 1 -0.3,0.39 4.3,4.3 0 0 1 -4.72,0.68 1.91,1.91 0 0 1 -0.62,-0.45 c -1,-1.17 1,-3 0,-4.15 a 7.28,7.28 0 0 0 -0.81,-0.63 2,2 0 0 1 -0.63,-2.12 3.62,3.62 0 0 1 1.5,-1.85 6.82,6.82 0 0 1 5.16,-0.9 c 1.42,0.33 5.59,1.54 5.58,3 0,2.28 -4.43,1.76 -5.99,1.77 z"
           id="path92"
           style="fill:#800000" />
        <path
           class="cls-3"
           d="m 183.4,114.09 c -1.32,0.1 -2.93,0.09 -3.61,-0.87 -0.68,-0.96 0.13,-2.26 1.3,-2.77 A 9.62,9.62 0 0 1 185,110 a 6.81,6.81 0 0 0 3.78,-0.73 c 1.41,-0.92 1.65,-2.62 2.48,-4 a 6.79,6.79 0 0 1 5.61,-2.88 3,3 0 0 1 2.57,1 2.06,2.06 0 0 1 0.17,1.25 11.72,11.72 0 0 1 -2.08,4.66 4.18,4.18 0 0 0 4.73,-1.75 c 0.87,0.48 0.44,1.6 -0.09,2.36 -0.93,1.36 -1.15,2.5 -2.09,3.86 a 9.77,9.77 0 0 1 -2.78,3 4.3,4.3 0 0 1 -4.23,0.27 c -1.59,-1 -1.51,-3 -0.64,-4.51 0.53,-0.92 1.49,-2.1 0.8,-3.1 -1.48,0.94 -1.72,2.76 -3.22,3.65 -1.72,1.08 -4.66,0.86 -6.61,1.01 z"
           id="path94"
           style="fill:#800000" />
        <path
           class="cls-3"
           d="m 194.18,86 a 1.92,1.92 0 0 1 0.24,-1.75 2.58,2.58 0 0 1 0.83,-0.46 c 1.3,-0.51 2.88,-1 4.07,-0.35 1,0.55 1.29,1.73 2.26,2.32 a 11.06,11.06 0 0 0 2.13,0.69 4.38,4.38 0 0 1 2.78,4.81 c -0.27,1.91 -1.5,3.6 -2.7,5.23 L 202,98.92 a 2.33,2.33 0 0 1 -1.1,1 1.73,1.73 0 0 1 -2.08,-1.42 5.46,5.46 0 0 1 0.69,-2.52 8.28,8.28 0 0 0 0.05,-6 2.25,2.25 0 0 0 -1.85,1.02 c -1.51,1.93 -2.59,4.11 -4.08,6 -3.08,-1.07 -3.74,-1.51 -1.79,-3.79 1.95,-2.28 2.83,-4.37 2.34,-7.21 z"
           id="path96"
           style="fill:#800000" />
        <path
           class="cls-3"
           d="m 166.66,3.84 c -0.1,-0.6 -0.23,-1.29 0.24,-1.75 0.22,-0.21 0.53,0.63 0.83,0.51 1.29,-0.51 2.87,-1 4.06,-0.35 1,0.56 1.3,0.76 2.27,1.35 a 11.19,11.19 0 0 0 2.12,0.69 4.4,4.4 0 0 1 2.82,4.81 c -0.28,1.9 -1.5,3.6 -2.7,5.23 l -1.8,2.45 a 2.29,2.29 0 0 1 -1.1,1 1.73,1.73 0 0 1 -2.08,-1.42 5.34,5.34 0 0 1 0.68,-2.56 8.31,8.31 0 0 0 0.05,-6 2.26,2.26 0 0 0 -1.85,1.12 c -1.51,1.93 -2.59,4.11 -4.07,6 -3.08,-1.06 -3.75,-1.5 -1.8,-3.78 1.95,-2.28 2.81,-4.43 2.33,-7.3 z"
           id="path98"
           style="fill:#800000" />
      </g>
      <polyline
         class="cls-4"
         points="162.65 127.38 179.52 125.69 170.12 121.32 162.45 108.06 156.59 96.03 179.83 112.46 181.83 101.36 196.68 107.37 199.12 90.13 176.32 88.35 157.67 78.64 202.87 79.23 208.01 64.98 189.55 69.86 203.1 54.15 163.94 63.09 181.55 51.41 170.06 49.99 158.75 40.13 160.1 16.25 181.48 39.33 177.68 27.21 192.7 26 171.67 8.92 170.06 49.99"
         id="polyline102" />
      <line
         class="cls-4"
         x1="181.55"
         y1="51.41"
         x2="176.32001"
         y2="88.349998"
         id="line104" />
      <line
         class="cls-4"
         x1="192.7"
         y1="26"
         x2="203.10001"
         y2="54.150002"
         id="line106" />
      <line
         class="cls-4"
         x1="208.00999"
         y1="64.980003"
         x2="181.48"
         y2="39.330002"
         id="line108" />
      <line
         class="cls-4"
         x1="163.94"
         y1="63.09"
         x2="199.12"
         y2="90.129997"
         id="line110" />
      <line
         class="cls-4"
         x1="179.83"
         y1="112.46"
         x2="157.67"
         y2="78.639999"
         id="line112" />
      <line
         class="cls-4"
         x1="197.66"
         y1="91.800003"
         x2="181.83"
         y2="101.36"
         id="line114" />
      <line
         class="cls-4"
         x1="162.22"
         y1="62.23"
         x2="158.75"
         y2="40.130001"
         id="line116" />
      <line
         class="cls-4"
         x1="161.11"
         y1="127.29"
         x2="162.45"
         y2="108.06"
         id="line118" />
      <line
         class="cls-4"
         x1="196.33"
         y1="108.47"
         x2="178.53"
         y2="112.64"
         id="line120" />
      <path
         class="cls-5"
         d="M 175,8.92 A 3.34,3.34 0 1 0 171.66,12.26 3.34,3.34 0 0 0 175,8.92 Z"
         id="path122" />
      <path
         class="cls-5"
         d="M 196,26 A 3.34,3.34 0 1 0 192.66,29.34 3.34,3.34 0 0 0 196,26 Z"
         id="path124" />
      <circle
         class="cls-6"
         cx="177.67999"
         cy="27.209999"
         r="3.3399999"
         id="circle126" />
      <path
         class="cls-5"
         d="m 163.44,16.25 a 3.34,3.34 0 1 0 -3.34,3.34 3.35,3.35 0 0 0 3.34,-3.34 z"
         id="path128" />
      <circle
         class="cls-7"
         cx="158.75"
         cy="40.130001"
         r="3.3399999"
         id="circle130" />
      <path
         class="cls-8"
         d="m 184.82,39.33 a 3.34,3.34 0 1 0 -3.34,3.34 3.33,3.33 0 0 0 3.34,-3.34 z"
         id="path132" />
      <path
         class="cls-9"
         d="M 173.4,50 A 3.34,3.34 0 1 0 170.06,53.34 3.33,3.33 0 0 0 173.4,50 Z"
         id="path134" />
      <path
         class="cls-10"
         d="m 206.44,54.15 a 3.34,3.34 0 1 0 -3.34,3.34 3.34,3.34 0 0 0 3.34,-3.34 z"
         id="path136" />
      <circle
         class="cls-11"
         cx="208.00999"
         cy="64.980003"
         r="3.3399999"
         id="circle138" />
      <path
         class="cls-12"
         d="m 192.89,69.86 a 3.34,3.34 0 1 0 -3.34,3.34 3.35,3.35 0 0 0 3.34,-3.34 z"
         id="path140" />
      <path
         class="cls-13"
         d="m 184.89,51.41 a 3.34,3.34 0 1 0 -3.34,3.34 3.34,3.34 0 0 0 3.34,-3.34 z"
         id="path142" />
      <circle
         class="cls-14"
         cx="163.94"
         cy="63.09"
         r="3.3399999"
         id="circle144" />
      <path
         class="cls-15"
         d="M 161,78.64 A 3.34,3.34 0 1 0 157.67,82 3.34,3.34 0 0 0 161,78.64 Z"
         id="path146" />
      <path
         class="cls-16"
         d="m 179.51,87.36 a 3.34,3.34 0 1 0 -2.21,4.18 3.35,3.35 0 0 0 2.21,-4.18 z"
         id="path148" />
      <path
         class="cls-17"
         d="m 202.58,82.55 a 3.34,3.34 0 1 0 -3,-3.62 3.33,3.33 0 0 0 3,3.62 z"
         id="path150" />
      <path
         class="cls-18"
         d="m 198.82,93.45 a 3.34,3.34 0 1 0 -3,-3.62 3.33,3.33 0 0 0 3,3.62 z"
         id="path152" />
      <path
         class="cls-19"
         d="m 196.38,110.7 a 3.34,3.34 0 1 0 -3,-3.62 3.34,3.34 0 0 0 3,3.62 z"
         id="path154" />
      <path
         class="cls-20"
         d="m 179.53,115.79 a 3.34,3.34 0 1 0 -3,-3.62 3.34,3.34 0 0 0 3,3.62 z"
         id="path156" />
      <path
         class="cls-21"
         d="m 181.54,104.68 a 3.34,3.34 0 1 0 -3,-3.62 3.33,3.33 0 0 0 3,3.62 z"
         id="path158" />
      <path
         class="cls-22"
         d="m 162.15,111.39 a 3.34,3.34 0 1 0 -3,-3.62 3.34,3.34 0 0 0 3,3.62 z"
         id="path160" />
      <path
         class="cls-23"
         d="m 157.29,99.35 a 3.34,3.34 0 1 0 -3,-3.62 3.33,3.33 0 0 0 3,3.62 z"
         id="path162" />
      <path
         class="cls-24"
         d="m 169.83,124.65 a 3.34,3.34 0 1 0 -3,-3.62 3.34,3.34 0 0 0 3,3.62 z"
         id="path164" />
      <path
         class="cls-25"
         d="m 162.35,130.71 a 3.34,3.34 0 1 0 -3,-3.62 3.34,3.34 0 0 0 3,3.62 z"
         id="path166" />
      <path
         class="cls-26"
         d="m 180.41,129.72 a 3.34,3.34 0 1 0 -3,-3.62 3.34,3.34 0 0 0 3,3.62 z"
         id="path168" />
    </g>
  </g>
</svg>
